<mxfile host="app.diagrams.net" agent="Mozilla/5.0 (Windows NT 10.0; Win64; x64) AppleWebKit/537.36 (KHTML, like Gecko) Chrome/132.0.0.0 Safari/537.36" version="26.0.10" pages="2">
  <diagram name="Página-1" id="pZONQPJl1_qsneuGH-79">
    <mxGraphModel dx="1500" dy="807" grid="1" gridSize="10" guides="1" tooltips="1" connect="1" arrows="1" fold="1" page="1" pageScale="1" pageWidth="827" pageHeight="1169" math="0" shadow="0">
      <root>
        <mxCell id="0" />
        <mxCell id="1" parent="0" />
        <mxCell id="m8Se5LMaYwiCWJ5bhhPd-1" value="inicio" style="rounded=1;whiteSpace=wrap;html=1;" vertex="1" parent="1">
          <mxGeometry x="330" y="30" width="120" height="60" as="geometry" />
        </mxCell>
        <mxCell id="m8Se5LMaYwiCWJ5bhhPd-12" style="edgeStyle=orthogonalEdgeStyle;rounded=0;orthogonalLoop=1;jettySize=auto;html=1;" edge="1" parent="1" source="m8Se5LMaYwiCWJ5bhhPd-2">
          <mxGeometry relative="1" as="geometry">
            <mxPoint x="390" y="420" as="targetPoint" />
          </mxGeometry>
        </mxCell>
        <mxCell id="m8Se5LMaYwiCWJ5bhhPd-2" value="media=(n1+n2+n3)/3" style="rounded=0;whiteSpace=wrap;html=1;" vertex="1" parent="1">
          <mxGeometry x="330" y="310" width="120" height="60" as="geometry" />
        </mxCell>
        <mxCell id="m8Se5LMaYwiCWJ5bhhPd-19" style="edgeStyle=orthogonalEdgeStyle;rounded=0;orthogonalLoop=1;jettySize=auto;html=1;entryX=0.5;entryY=0;entryDx=0;entryDy=0;" edge="1" parent="1" source="m8Se5LMaYwiCWJ5bhhPd-3" target="m8Se5LMaYwiCWJ5bhhPd-2">
          <mxGeometry relative="1" as="geometry" />
        </mxCell>
        <mxCell id="m8Se5LMaYwiCWJ5bhhPd-3" value="n1,n2,n3" style="html=1;strokeWidth=2;shape=manualInput;whiteSpace=wrap;rounded=1;size=26;arcSize=11;" vertex="1" parent="1">
          <mxGeometry x="340" y="150" width="100" height="60" as="geometry" />
        </mxCell>
        <mxCell id="m8Se5LMaYwiCWJ5bhhPd-5" value="media&amp;gt;=0&amp;nbsp; &amp;nbsp;&lt;div&gt;e&lt;/div&gt;&lt;div&gt;media&amp;lt;=4&lt;/div&gt;" style="rhombus;whiteSpace=wrap;html=1;" vertex="1" parent="1">
          <mxGeometry x="330" y="420" width="120" height="105" as="geometry" />
        </mxCell>
        <mxCell id="m8Se5LMaYwiCWJ5bhhPd-9" style="edgeStyle=orthogonalEdgeStyle;rounded=0;orthogonalLoop=1;jettySize=auto;html=1;" edge="1" parent="1" source="m8Se5LMaYwiCWJ5bhhPd-1">
          <mxGeometry relative="1" as="geometry">
            <mxPoint x="390" y="160" as="targetPoint" />
            <Array as="points">
              <mxPoint x="390" y="140" />
              <mxPoint x="391" y="140" />
            </Array>
          </mxGeometry>
        </mxCell>
        <mxCell id="m8Se5LMaYwiCWJ5bhhPd-20" style="edgeStyle=orthogonalEdgeStyle;rounded=0;orthogonalLoop=1;jettySize=auto;html=1;" edge="1" parent="1" source="m8Se5LMaYwiCWJ5bhhPd-5" target="m8Se5LMaYwiCWJ5bhhPd-23">
          <mxGeometry relative="1" as="geometry">
            <mxPoint x="540" y="473" as="targetPoint" />
          </mxGeometry>
        </mxCell>
        <mxCell id="m8Se5LMaYwiCWJ5bhhPd-52" style="edgeStyle=orthogonalEdgeStyle;rounded=0;orthogonalLoop=1;jettySize=auto;html=1;entryX=0;entryY=0.75;entryDx=0;entryDy=0;" edge="1" parent="1" source="m8Se5LMaYwiCWJ5bhhPd-21" target="m8Se5LMaYwiCWJ5bhhPd-38">
          <mxGeometry relative="1" as="geometry">
            <Array as="points">
              <mxPoint x="120" y="1018" />
            </Array>
          </mxGeometry>
        </mxCell>
        <mxCell id="m8Se5LMaYwiCWJ5bhhPd-21" value="&#39;&#39;REPROVADO&#39;&#39;" style="strokeWidth=2;html=1;shape=mxgraph.flowchart.document2;whiteSpace=wrap;size=0.25;" vertex="1" parent="1">
          <mxGeometry x="70" y="442.5" width="100" height="60" as="geometry" />
        </mxCell>
        <mxCell id="m8Se5LMaYwiCWJ5bhhPd-22" style="edgeStyle=orthogonalEdgeStyle;rounded=0;orthogonalLoop=1;jettySize=auto;html=1;entryX=1;entryY=0.5;entryDx=0;entryDy=0;entryPerimeter=0;" edge="1" parent="1" source="m8Se5LMaYwiCWJ5bhhPd-5" target="m8Se5LMaYwiCWJ5bhhPd-21">
          <mxGeometry relative="1" as="geometry" />
        </mxCell>
        <mxCell id="m8Se5LMaYwiCWJ5bhhPd-30" style="edgeStyle=orthogonalEdgeStyle;rounded=0;orthogonalLoop=1;jettySize=auto;html=1;entryX=0.5;entryY=0;entryDx=0;entryDy=0;" edge="1" parent="1" source="m8Se5LMaYwiCWJ5bhhPd-23" target="m8Se5LMaYwiCWJ5bhhPd-29">
          <mxGeometry relative="1" as="geometry" />
        </mxCell>
        <mxCell id="m8Se5LMaYwiCWJ5bhhPd-23" value="media&amp;gt;4&lt;div&gt;e&lt;/div&gt;&lt;div&gt;media&amp;lt;7&lt;/div&gt;" style="strokeWidth=2;html=1;shape=mxgraph.flowchart.decision;whiteSpace=wrap;" vertex="1" parent="1">
          <mxGeometry x="490" y="560" width="120" height="100" as="geometry" />
        </mxCell>
        <mxCell id="m8Se5LMaYwiCWJ5bhhPd-51" style="edgeStyle=orthogonalEdgeStyle;rounded=0;orthogonalLoop=1;jettySize=auto;html=1;entryX=0;entryY=0.25;entryDx=0;entryDy=0;" edge="1" parent="1" source="m8Se5LMaYwiCWJ5bhhPd-24" target="m8Se5LMaYwiCWJ5bhhPd-38">
          <mxGeometry relative="1" as="geometry">
            <Array as="points">
              <mxPoint x="290" y="813" />
              <mxPoint x="240" y="813" />
              <mxPoint x="240" y="993" />
            </Array>
          </mxGeometry>
        </mxCell>
        <mxCell id="m8Se5LMaYwiCWJ5bhhPd-24" value="&#39;&#39;REPROVADO&#39;&#39;" style="strokeWidth=2;html=1;shape=mxgraph.flowchart.document2;whiteSpace=wrap;size=0.25;" vertex="1" parent="1">
          <mxGeometry x="270" y="585" width="100" height="60" as="geometry" />
        </mxCell>
        <mxCell id="m8Se5LMaYwiCWJ5bhhPd-25" style="edgeStyle=orthogonalEdgeStyle;rounded=0;orthogonalLoop=1;jettySize=auto;html=1;entryX=1;entryY=0.5;entryDx=0;entryDy=0;entryPerimeter=0;" edge="1" parent="1" source="m8Se5LMaYwiCWJ5bhhPd-23" target="m8Se5LMaYwiCWJ5bhhPd-24">
          <mxGeometry relative="1" as="geometry" />
        </mxCell>
        <mxCell id="m8Se5LMaYwiCWJ5bhhPd-26" value="sim" style="text;html=1;align=center;verticalAlign=middle;whiteSpace=wrap;rounded=0;" vertex="1" parent="1">
          <mxGeometry x="380" y="580" width="60" height="30" as="geometry" />
        </mxCell>
        <mxCell id="m8Se5LMaYwiCWJ5bhhPd-27" value="Não" style="text;html=1;align=center;verticalAlign=middle;whiteSpace=wrap;rounded=0;" vertex="1" parent="1">
          <mxGeometry x="480" y="443" width="60" height="30" as="geometry" />
        </mxCell>
        <mxCell id="m8Se5LMaYwiCWJ5bhhPd-28" value="sim" style="text;html=1;align=center;verticalAlign=middle;whiteSpace=wrap;rounded=0;" vertex="1" parent="1">
          <mxGeometry x="260" y="443" width="60" height="30" as="geometry" />
        </mxCell>
        <mxCell id="m8Se5LMaYwiCWJ5bhhPd-29" value="media&amp;gt;=7&lt;div&gt;e&lt;/div&gt;&lt;div&gt;media&amp;lt;=10&lt;/div&gt;" style="rhombus;whiteSpace=wrap;html=1;" vertex="1" parent="1">
          <mxGeometry x="580" y="740" width="120" height="90" as="geometry" />
        </mxCell>
        <mxCell id="m8Se5LMaYwiCWJ5bhhPd-41" style="edgeStyle=orthogonalEdgeStyle;rounded=0;orthogonalLoop=1;jettySize=auto;html=1;entryX=0.5;entryY=0;entryDx=0;entryDy=0;" edge="1" parent="1" source="m8Se5LMaYwiCWJ5bhhPd-31" target="m8Se5LMaYwiCWJ5bhhPd-38">
          <mxGeometry relative="1" as="geometry" />
        </mxCell>
        <mxCell id="m8Se5LMaYwiCWJ5bhhPd-31" value="&#39;&#39;APROVADO&#39;&#39;" style="strokeWidth=2;html=1;shape=mxgraph.flowchart.document2;whiteSpace=wrap;size=0.25;" vertex="1" parent="1">
          <mxGeometry x="330" y="765" width="100" height="60" as="geometry" />
        </mxCell>
        <mxCell id="m8Se5LMaYwiCWJ5bhhPd-33" value="sim" style="text;html=1;align=center;verticalAlign=middle;whiteSpace=wrap;rounded=0;" vertex="1" parent="1">
          <mxGeometry x="430" y="760" width="60" height="30" as="geometry" />
        </mxCell>
        <mxCell id="m8Se5LMaYwiCWJ5bhhPd-59" style="edgeStyle=orthogonalEdgeStyle;rounded=0;orthogonalLoop=1;jettySize=auto;html=1;entryX=1;entryY=0.75;entryDx=0;entryDy=0;" edge="1" parent="1" source="m8Se5LMaYwiCWJ5bhhPd-37" target="m8Se5LMaYwiCWJ5bhhPd-38">
          <mxGeometry relative="1" as="geometry">
            <Array as="points">
              <mxPoint x="860" y="1018" />
            </Array>
          </mxGeometry>
        </mxCell>
        <mxCell id="m8Se5LMaYwiCWJ5bhhPd-37" value="&#39;&#39;Erro de digitação&#39;&#39;" style="strokeWidth=2;html=1;shape=mxgraph.flowchart.document2;whiteSpace=wrap;size=0.25;" vertex="1" parent="1">
          <mxGeometry x="810" y="755" width="100" height="60" as="geometry" />
        </mxCell>
        <mxCell id="m8Se5LMaYwiCWJ5bhhPd-38" value="fim" style="rounded=1;whiteSpace=wrap;html=1;" vertex="1" parent="1">
          <mxGeometry x="260" y="980" width="80" height="50" as="geometry" />
        </mxCell>
        <mxCell id="m8Se5LMaYwiCWJ5bhhPd-46" style="edgeStyle=orthogonalEdgeStyle;rounded=0;orthogonalLoop=1;jettySize=auto;html=1;entryX=1;entryY=0.5;entryDx=0;entryDy=0;entryPerimeter=0;" edge="1" parent="1" source="m8Se5LMaYwiCWJ5bhhPd-29" target="m8Se5LMaYwiCWJ5bhhPd-31">
          <mxGeometry relative="1" as="geometry" />
        </mxCell>
        <mxCell id="m8Se5LMaYwiCWJ5bhhPd-58" style="edgeStyle=orthogonalEdgeStyle;rounded=0;orthogonalLoop=1;jettySize=auto;html=1;entryX=0;entryY=0.5;entryDx=0;entryDy=0;entryPerimeter=0;" edge="1" parent="1" source="m8Se5LMaYwiCWJ5bhhPd-29" target="m8Se5LMaYwiCWJ5bhhPd-37">
          <mxGeometry relative="1" as="geometry" />
        </mxCell>
      </root>
    </mxGraphModel>
  </diagram>
  <diagram id="k7Dp8DKMWJeUhq0aEiSj" name="Página-2">
    <mxGraphModel dx="1235" dy="665" grid="1" gridSize="10" guides="1" tooltips="1" connect="1" arrows="1" fold="1" page="1" pageScale="1" pageWidth="827" pageHeight="1169" math="0" shadow="0">
      <root>
        <mxCell id="0" />
        <mxCell id="1" parent="0" />
        <mxCell id="i0NXZz5UsV-ixGzAjieF-3" style="edgeStyle=orthogonalEdgeStyle;rounded=0;orthogonalLoop=1;jettySize=auto;html=1;entryX=0.5;entryY=0;entryDx=0;entryDy=0;" edge="1" parent="1" source="i0NXZz5UsV-ixGzAjieF-1" target="i0NXZz5UsV-ixGzAjieF-2">
          <mxGeometry relative="1" as="geometry" />
        </mxCell>
        <mxCell id="i0NXZz5UsV-ixGzAjieF-1" value="inicio" style="rounded=1;whiteSpace=wrap;html=1;" vertex="1" parent="1">
          <mxGeometry x="320" y="50" width="120" height="60" as="geometry" />
        </mxCell>
        <mxCell id="l_RKcVFfPtAye7flV0uJ-3" style="edgeStyle=orthogonalEdgeStyle;rounded=0;orthogonalLoop=1;jettySize=auto;html=1;entryX=0.5;entryY=0;entryDx=0;entryDy=0;" edge="1" parent="1" source="i0NXZz5UsV-ixGzAjieF-2" target="l_RKcVFfPtAye7flV0uJ-1">
          <mxGeometry relative="1" as="geometry" />
        </mxCell>
        <mxCell id="coLdgNSWIWc1v7x0arRF-3" style="edgeStyle=orthogonalEdgeStyle;rounded=0;orthogonalLoop=1;jettySize=auto;html=1;" edge="1" parent="1" source="i0NXZz5UsV-ixGzAjieF-2" target="coLdgNSWIWc1v7x0arRF-1">
          <mxGeometry relative="1" as="geometry" />
        </mxCell>
        <mxCell id="coLdgNSWIWc1v7x0arRF-4" style="edgeStyle=orthogonalEdgeStyle;rounded=0;orthogonalLoop=1;jettySize=auto;html=1;" edge="1" parent="1" source="i0NXZz5UsV-ixGzAjieF-2" target="coLdgNSWIWc1v7x0arRF-2">
          <mxGeometry relative="1" as="geometry" />
        </mxCell>
        <mxCell id="i0NXZz5UsV-ixGzAjieF-2" value="diferente&lt;div&gt;de&amp;nbsp;&lt;/div&gt;&lt;div&gt;0&lt;/div&gt;" style="rounded=0;whiteSpace=wrap;html=1;" vertex="1" parent="1">
          <mxGeometry x="320" y="190" width="120" height="60" as="geometry" />
        </mxCell>
        <mxCell id="coLdgNSWIWc1v7x0arRF-10" style="edgeStyle=orthogonalEdgeStyle;rounded=0;orthogonalLoop=1;jettySize=auto;html=1;entryX=0.5;entryY=0;entryDx=0;entryDy=0;" edge="1" parent="1" source="l_RKcVFfPtAye7flV0uJ-1" target="coLdgNSWIWc1v7x0arRF-7">
          <mxGeometry relative="1" as="geometry" />
        </mxCell>
        <mxCell id="l_RKcVFfPtAye7flV0uJ-1" value="N=&amp;gt;0&lt;div&gt;N=&amp;lt;0&lt;/div&gt;" style="rhombus;whiteSpace=wrap;html=1;" vertex="1" parent="1">
          <mxGeometry x="320" y="300" width="120" height="100" as="geometry" />
        </mxCell>
        <mxCell id="coLdgNSWIWc1v7x0arRF-8" style="edgeStyle=orthogonalEdgeStyle;rounded=0;orthogonalLoop=1;jettySize=auto;html=1;entryX=0;entryY=1;entryDx=0;entryDy=0;" edge="1" parent="1" source="coLdgNSWIWc1v7x0arRF-1" target="coLdgNSWIWc1v7x0arRF-7">
          <mxGeometry relative="1" as="geometry">
            <Array as="points">
              <mxPoint x="150" y="600" />
              <mxPoint x="320" y="600" />
            </Array>
          </mxGeometry>
        </mxCell>
        <mxCell id="coLdgNSWIWc1v7x0arRF-1" value="&#39;&#39;Positivo&#39;&#39;" style="strokeWidth=2;html=1;shape=mxgraph.flowchart.document2;whiteSpace=wrap;size=0.25;" vertex="1" parent="1">
          <mxGeometry x="90" y="190" width="100" height="60" as="geometry" />
        </mxCell>
        <mxCell id="coLdgNSWIWc1v7x0arRF-11" style="edgeStyle=orthogonalEdgeStyle;rounded=0;orthogonalLoop=1;jettySize=auto;html=1;" edge="1" parent="1" source="coLdgNSWIWc1v7x0arRF-2" target="coLdgNSWIWc1v7x0arRF-7">
          <mxGeometry relative="1" as="geometry">
            <Array as="points">
              <mxPoint x="580" y="550" />
            </Array>
          </mxGeometry>
        </mxCell>
        <mxCell id="coLdgNSWIWc1v7x0arRF-2" value="&#39;&#39;Negativo&#39;&#39;" style="strokeWidth=2;html=1;shape=mxgraph.flowchart.document2;whiteSpace=wrap;size=0.25;" vertex="1" parent="1">
          <mxGeometry x="540" y="190" width="100" height="60" as="geometry" />
        </mxCell>
        <mxCell id="coLdgNSWIWc1v7x0arRF-5" value="sim" style="text;html=1;align=center;verticalAlign=middle;whiteSpace=wrap;rounded=0;" vertex="1" parent="1">
          <mxGeometry x="230" y="190" width="60" height="30" as="geometry" />
        </mxCell>
        <mxCell id="coLdgNSWIWc1v7x0arRF-6" value="não" style="text;html=1;align=center;verticalAlign=middle;whiteSpace=wrap;rounded=0;" vertex="1" parent="1">
          <mxGeometry x="460" y="191" width="60" height="30" as="geometry" />
        </mxCell>
        <mxCell id="coLdgNSWIWc1v7x0arRF-7" value="fim" style="rounded=1;whiteSpace=wrap;html=1;" vertex="1" parent="1">
          <mxGeometry x="320" y="520" width="120" height="60" as="geometry" />
        </mxCell>
      </root>
    </mxGraphModel>
  </diagram>
</mxfile>
